<?xml version="1.0" encoding="UTF-8"?>
<svg version="1.1" viewBox="0 0 59.6 39.8" xmlns="http://www.w3.org/2000/svg">
 <path class="cls-1" d="m59.6 19.4a21.6 21.6 0 0 0-2.28-10.1 17 17 0 0 0-6.38-6.83 18.4 18.4 0 0 0-9.64-2.47 19.8 19.8 0 0 0-9.87 2.39 16.6 16.6 0 0 0-6.6 6.76 19.3 19.3 0 0 0-2.07 6.42h-5.87a22.9 22.9 0 0 0 6.09-15.6h-7.65a15.3 15.3 0 0 1-15.3 15.3v7.64a15.3 15.3 0 0 1 15.3 15.3h7.65a22.8 22.8 0 0 0-6.09-15.6h5.69a20 20 0 0 0 2.28 8 16.8 16.8 0 0 0 6.69 6.75 19.9 19.9 0 0 0 9.9 2.4 19.4 19.4 0 0 0 8.51-1.64 16.6 16.6 0 0 0 5.35-3.94 24.8 24.8 0 0 0 3.07-4.29l-7.82-4.1a12.5 12.5 0 0 1-2.88 3.87q-1.91 1.74-5.92 1.74a9.72 9.72 0 0 1-6.72-2.41 8.51 8.51 0 0 1-2.89-6.31h27.4zm-27.3-3.87a8.44 8.44 0 0 1 2.77-5.24 9 9 0 0 1 6.15-2 9 9 0 0 1 6 2 7.5 7.5 0 0 1 2.62 5.24z"/>
</svg>
