<svg xmlns="http://www.w3.org/2000/svg" viewBox="0 0 814 814"><path d="M276.1 2.933c-8.4 1.467-13.47 6.134-21.47 19.33-3.867 6.4-7.067 12.27-7.334 13.07-.133.667-1.466 4.134-3.066 7.6-4.267 9.734-8.4 23.33-10.4 35.07-2.267 13.2-2.934 35.73-1.467 46.27.667 4.8.533 5.066-6.267 8.933-11.33 6.267-25.73 16-33.87 22.53-4.267 3.334-8.267 6.534-9.067 7.067-.8.667-4.4-.4-8.667-2.667-12.93-6.933-34.13-13.33-51.87-15.73-8.134-1.067-34.13-1.067-40.67 0-21.73 3.467-26 4.933-31.07 10.93-4 4.534-5.6 8.934-5.6 15.33 0 5.333 3.734 15.47 6.934 18.8.933 1.066 3.333 4 5.066 6.533 1.734 2.533 3.6 4.933 4 5.333s4 4.534 8 9.334c19.33 22.8 46.13 47.07 69.2 62.53 22 14.67 30.13 18.53 66.13 32.13 8.133 3.067 15.87 6 17.33 6.667 2.8 1.333 24.8 9.733 26 10 .4.133 1.867.667 3.333 1.333 1.467.534 5.734 2.267 9.334 3.6 3.733 1.334 7.866 2.934 9.333 3.6 1.467.667 6.267 2.534 10.67 4.134s9.2 3.466 10.67 4.133c11.47 4.933 29.2 11.2 35.33 12.53 6.133 1.334 8.266 1.2 12.67-.533 7.734-2.933 12.53-8.133 15.07-16.13.267-1.067.667-39.87.667-86 0-74.27-.4-95.47-2.667-105.3-.267-1.466-.8-4.133-1.2-6-.4-1.866-1.867-8.4-3.333-14.67a1256 1256 0 0 0-3.2-13.33c-.4-1.733-2.934-9.066-9.6-27.33-2.667-7.333-21.73-45.73-28.67-58-10.13-17.6-18.27-23.2-30.27-21.07zm5.867 39.73c16.13 32 23.6 47.47 25.87 53.6 2.533 7.2 2.533 7.733.4 7.866-1.2 0-3.2.267-4.267.534-1.067.266-3.467.666-5.333 1.066-1.867.4-6 1.334-9.334 2.267-3.333.933-6.533 1.733-7.333 2-.667.133-2.267.533-3.333.933-11.73 4-16.27 5.334-16.8 4.667-.934-.933-.934-17.87 0-24.27.533-2.933 1.2-7.466 1.6-10 1.733-11.87 13.33-41.33 16.27-41.33.534 0 1.6 1.2 2.267 2.667zm-162.7 132.5c12.8 1.6 34.4 8 38.27 11.33.533.4-2.4 5.067-6.4 10.13-4.133 5.2-8.133 10.27-8.933 11.33-.934 1.067-4.267 6-7.6 10.93l-6 8.934-5.867-5.6c-16.4-15.87-21.47-21.33-34.27-36.27-7.066-8.4-9.733-12.27-7.733-11.07.667.4 3.867.4 7.2-.133 6.933-1.067 21.6-.8 31.33.4z"/><path d="M500.9 160.8c-.133.133-5.6.667-12.27 1.067-14 1.066-16.93 1.466-23.33 2.666-2.533.4-6.133 1.067-8 1.334-1.867.4-8.133 1.866-14 3.466s-11.6 3.067-12.67 3.334c-4.533 1.066-26.67 10-36 14.53l-10 4.933-.134 68.93c0 37.87-.4 71.87-.8 75.6-1.866 16-14 32.13-30 39.6-7.2 3.467-10.4 4.134-19.47 4.267-6 0-12.67-.267-14.93-.8-4-1.067-40.8-14.8-50.67-19.07-2.934-1.2-6.267-2.4-7.334-2.666-1.066-.267-11.2-4.134-22.4-8.534-11.2-4.533-20.67-8.133-21.07-8.133s-2.934-.933-5.6-2.133c-6.134-2.667-8.134-3.467-19.33-7.734-5.2-2-9.866-3.066-10.8-2.533-1.066.667-5.6 4.4-10.13 8.4-4.667 4-9.467 8.267-10.67 9.333-27.87 24.27-73.87 70.8-96 97.33-3.333 4-7.333 8.666-9.066 10.53-6.934 7.6-9.067 13.6-8.4 23.47.266 4.666 7.066 13.87 12 16.13 6 2.8 13.2 3.467 18.13 1.6 2.267-.8 8.533-4.667 14-8.4 20.8-14.27 60.8-38.67 64.67-39.33.8-.134 2.8-1.334 4.666-2.667 5.867-4 38.4-19.33 40.4-18.93.534.133.934-.267.934-.934 0-.666 1.333-1.6 3.066-2.133 1.6-.533 3.6-1.2 4.267-1.333.8-.267 6.4-2.667 12.67-5.334 6.266-2.8 13.73-5.066 16.8-5.333 10.4-.8 22 7.6 23.73 17.2.4 2.133.933 4 1.333 4.4 1.734 1.733-8.266 23.33-12.4 27.07-.8.666-1.6 2-7.066 11.87-1.467 2.667-3.2 5.334-3.734 6.134-.533.666-4.4 7.866-8.666 16-4.267 8-8.134 15.2-8.8 16-.534.666-2 4-3.334 7.333-1.333 3.333-3.2 7.467-4.4 9.2-1.066 1.733-2.133 3.867-2.266 4.667-.134.8-2.134 5.6-4.534 10.8-6 13.07-11.33 26.53-18.27 46-7.867 22.4-7.6 21.07-7.6 28.67-.134 8.134 2.4 13.2 8.8 18.4 3.866 3.2 6.4 4 12.67 4.267 10.13.533 15.07-2.133 22.67-12.13 1.733-2.134 8.133-10.67 14.4-18.93 11.07-14.53 15.07-19.6 19.33-24.27 1.067-1.2 5.867-6.667 10.53-12.13 8.8-10 48.27-49.87 58.13-58.53 9.6-8.533 27.73-23.47 40.13-33.07 14.8-11.33 49.07-34.93 50.93-34.93.8 0 1.6-.533 1.866-1.067.4-1.066 14.53-9.733 31.07-18.93 54.27-30.53 122.5-56.27 185.6-69.73 16.13-3.467 19.6-3.067 25.07 3.066 3.867 4.267 3.467 13.6-.666 18-2.934 3.067-12.67 6.934-20.4 8-6.4.934-38 11.6-52 17.6-26.93 11.6-82.8 42.8-84.67 47.33-.267.533-1.067 1.066-1.867 1.066-1.466 0-19.73 13.33-28.67 20.93-1.467 1.333-5.467 4.533-8.667 7.066-10 8-40.27 38.8-50.27 51.2-13.2 16.27-27.6 38.53-37.2 57.07-4.4 8.667-7.734 15.73-7.467 15.73.4 0-.4 1.867-1.467 4-4.533 8.667-13.33 39.2-15.87 54.67-2.667 16.8-3.6 47.87-1.734 64.13 2.8 25.47 8.667 49.73 16.4 68.53 4.134 9.866 6.667 12.93 13.33 16.27 10.67 5.334 23.6.934 30.67-10.67 20-32.27 40.8-49.87 85.47-72.13 8.266-4.133 15.87-7.466 16.8-7.466 1.066 0 2.666-.934 3.6-2 .933-1.067 2.4-2 3.333-2s5.6-1.734 10.27-3.734c4.533-2.133 10.53-4.666 13.07-5.733 7.6-3.067 47.47-23.33 53.6-27.2 3.2-2 11.2-6.933 17.73-11.07 6.666-4 15.6-10 20-13.2 4.4-3.066 9.466-6.8 11.33-8 14.13-10.27 44.53-38.4 54.8-51.07 2.533-3.067 5.2-6.267 5.867-7.2 9.866-11.07 34.4-50.13 31.73-50.13-.667 0-.4-.533.533-1.066 4-2.534 18-42.93 21.73-62.93 4-20.8 4.4-26 4.4-52.67.133-27.87-.267-32.53-4.4-52.8-5.334-25.87-16.4-56-28-75.33-3.734-6.4-13.6-22-14.93-23.87-35.73-47.47-77.2-78-129.6-95.6-6.533-2.133-12.8-4.133-14-4.4s-4.533-1.067-7.466-1.733c-2.934-.8-7.067-1.867-9.334-2.267-2.133-.4-5.466-1.067-7.333-1.467-8.933-1.866-51.07-4.8-52.4-3.733zm-96.67 459.6c8.8 14 25.73 30.53 41.73 41.2 14.93 9.866 39.73 20.93 51.33 22.93 1.867.267 4.267.933 5.333 1.333 1.067.4 4 .934 6.4 1.334 6.134.8 6.4 1.466 1.334 3.466-14.67 5.867-54.4 26.53-61.73 32.27-.666.533-5.866 4.4-11.33 8.4-12.67 9.467-34.67 30.67-34.67 33.47 0 .4-.8 1.466-1.6 2.4-.934 1.066-2.667 3.066-3.734 4.666-3.6 5.2-3.6 5.067-9.066-17.33-5.334-21.87-6.267-30-6.134-55.2 0-11.73.534-24.4 1.067-28 1.733-11.47 6.133-30 8.267-35.07 1.066-2.666 2-5.2 1.866-5.6-.133-1.466 5.734-16 6.534-16 .4 0 2.4 2.534 4.4 5.734z"/></svg>